<svg id="Ñëîé_1" data-name="Ñëîé 1" xmlns="http://www.w3.org/2000/svg" viewBox="0 0 50.2 34.09"><defs><style>.cls-1{fill:#fff;}</style></defs><title>callback</title><path class="cls-1" d="M1764.51,931.23c-6.94,0-13.13-3.16-15-7.69a.64.64,0,1,1,1.18-.5c1.73,4.06,7.43,6.9,13.87,6.9a19.55,19.55,0,0,0,8.7-1.92.62.62,0,0,1,.44,0l4.38,1.11-.91-3.62a.64.64,0,0,1,.13-.56,6.88,6.88,0,0,0,1.65-4.36c0-4.2-4.33-7.93-10.53-9.06a.65.65,0,0,1,.23-1.27c6.82,1.25,11.59,5.5,11.59,10.33a8.11,8.11,0,0,1-1.74,4.91l1.1,4.36a.65.65,0,0,1-.17.61.63.63,0,0,1-.61.17l-5.2-1.31A21,21,0,0,1,1764.51,931.23Z" transform="translate(-1729.99 -897.15)"/><path class="cls-1" d="M1749.48,923.63a26.09,26.09,0,0,1-11.34-2.46l-6.57,1.66a.67.67,0,0,1-.62-.17.65.65,0,0,1-.17-.61l1.4-5.54a10,10,0,0,1-2.19-6.12c0-7.31,8.74-13.24,19.49-13.24s19.49,5.93,19.49,13.24S1760.23,923.63,1749.48,923.63Zm-11.27-3.79a.59.59,0,0,1,.29.07,24.67,24.67,0,0,0,11,2.43c10,0,18.2-5.36,18.2-12s-8.16-12-18.2-12-18.21,5.37-18.21,12a8.89,8.89,0,0,0,2.11,5.57.63.63,0,0,1,.13.56l-1.21,4.8,5.75-1.46Z" transform="translate(-1729.99 -897.15)"/><path class="cls-1" d="M1749.48,913.36a3,3,0,1,1,3-3A3,3,0,0,1,1749.48,913.36Zm0-4.66a1.69,1.69,0,1,0,1.68,1.69A1.69,1.69,0,0,0,1749.48,908.7Z" transform="translate(-1729.99 -897.15)"/><path class="cls-1" d="M1740.65,913.36a3,3,0,1,1,3-3A3,3,0,0,1,1740.65,913.36Zm0-4.66a1.69,1.69,0,1,0,1.68,1.69A1.69,1.69,0,0,0,1740.65,908.7Z" transform="translate(-1729.99 -897.15)"/><path class="cls-1" d="M1758.31,913.36a3,3,0,1,1,3-3A3,3,0,0,1,1758.31,913.36Zm0-4.66a1.69,1.69,0,1,0,1.68,1.69A1.69,1.69,0,0,0,1758.31,908.7Z" transform="translate(-1729.99 -897.15)"/></svg>