<svg id="Ñëîé_1" data-name="Ñëîé 1" xmlns="http://www.w3.org/2000/svg" viewBox="0 0 38.32 25.66"><defs><style>.cls-1{fill:#fff;}</style></defs><title>email</title><path class="cls-1" d="M1604.27,927h-37a.64.64,0,0,1-.64-.65V902a.64.64,0,0,1,.64-.64h37a.64.64,0,0,1,.64.64v24.37A.65.65,0,0,1,1604.27,927Zm-36.39-1.29h35.74V902.65h-35.74Z" transform="translate(-1566.59 -901.36)"/><path class="cls-1" d="M1585.75,919.52a.65.65,0,0,1-.43-.17l-18.51-16.87a.64.64,0,0,1,.43-1.12h37a.65.65,0,0,1,.6.41.63.63,0,0,1-.17.71l-18.51,16.87A.67.67,0,0,1,1585.75,919.52Zm-16.85-16.87L1585.75,918l16.86-15.35Z" transform="translate(-1566.59 -901.36)"/><path class="cls-1" d="M1604.27,927h-37a.65.65,0,0,1-.61-.44.64.64,0,0,1,.22-.72l14.67-11a.64.64,0,0,1,.91.13.65.65,0,0,1-.13.9l-13.13,9.84h33.17l-13-9.72a.63.63,0,0,1-.13-.9.64.64,0,0,1,.9-.13l14.51,10.88a.64.64,0,0,1,.22.72A.65.65,0,0,1,1604.27,927Z" transform="translate(-1566.59 -901.36)"/></svg>