<svg id="Ñëîé_1" data-name="Ñëîé 1" xmlns="http://www.w3.org/2000/svg" viewBox="0 0 32.16 42.38"><defs><style>.cls-1{fill:#fff;}</style></defs><title>fax</title><path class="cls-1" d="M481.5,607.29h-7.31a.66.66,0,0,1-.6-.4.65.65,0,0,1,.14-.7l7.31-7.32a.67.67,0,0,1,.71-.14.65.65,0,0,1,.39.6v7.31A.64.64,0,0,1,481.5,607.29ZM475.74,606h5.12v-5.12Z" transform="translate(-473.54 -598.69)"/><path class="cls-1" d="M505.05,641.06H474.19a.64.64,0,0,1-.65-.64V606.64a.64.64,0,0,1,.19-.45l7.31-7.32a.67.67,0,0,1,.46-.18h23.55a.64.64,0,0,1,.65.64v41.09A.64.64,0,0,1,505.05,641.06Zm-30.22-1.28h29.58V600H481.77l-6.94,6.94Z" transform="translate(-473.54 -598.69)"/><path class="cls-1" d="M499.47,612.35H485.59a.65.65,0,1,1,0-1.29h13.88a.65.65,0,0,1,0,1.29Z" transform="translate(-473.54 -598.69)"/><path class="cls-1" d="M499.47,619.67h-19.7a.65.65,0,0,1,0-1.29h19.7a.65.65,0,0,1,0,1.29Z" transform="translate(-473.54 -598.69)"/><path class="cls-1" d="M499.47,627h-19.7a.65.65,0,0,1,0-1.29h19.7a.65.65,0,0,1,0,1.29Z" transform="translate(-473.54 -598.69)"/><path class="cls-1" d="M492.32,634.31H479.77a.65.65,0,0,1,0-1.29h12.55a.65.65,0,0,1,0,1.29Z" transform="translate(-473.54 -598.69)"/></svg>