<svg id="Ñëîé_1" data-name="Ñëîé 1" xmlns="http://www.w3.org/2000/svg" viewBox="0 0 41.43 41.43"><defs><style>.cls-1{fill:#fff;}</style></defs><title>hours</title><path class="cls-1" d="M1418,1026.55a20.72,20.72,0,1,1,20.71-20.71A20.73,20.73,0,0,1,1418,1026.55Zm0-40.14a19.43,19.43,0,1,0,19.42,19.43A19.45,19.45,0,0,0,1418,986.41Z" transform="translate(-1397.31 -985.12)"/><path class="cls-1" d="M1418,992.48a.65.65,0,0,1-.65-.65v-2.52a.65.65,0,1,1,1.29,0v2.52A.65.65,0,0,1,1418,992.48Z" transform="translate(-1397.31 -985.12)"/><path class="cls-1" d="M1411,994.35a.63.63,0,0,1-.55-.32l-1.27-2.19a.65.65,0,0,1,.24-.88.64.64,0,0,1,.88.24l1.26,2.19a.65.65,0,0,1-.23.88A.8.8,0,0,1,1411,994.35Z" transform="translate(-1397.31 -985.12)"/><path class="cls-1" d="M1405.9,999.48a.62.62,0,0,1-.32-.09l-2.19-1.26a.65.65,0,0,1-.24-.88.64.64,0,0,1,.88-.24l2.19,1.27a.65.65,0,0,1,.24.88A.66.66,0,0,1,1405.9,999.48Z" transform="translate(-1397.31 -985.12)"/><path class="cls-1" d="M1404,1006.48h-2.52a.65.65,0,1,1,0-1.29H1404a.65.65,0,1,1,0,1.29Z" transform="translate(-1397.31 -985.12)"/><path class="cls-1" d="M1403.71,1014.74a.64.64,0,0,1-.56-.32.65.65,0,0,1,.24-.88l2.19-1.26a.64.64,0,0,1,.88.24.65.65,0,0,1-.24.88l-2.19,1.26A.61.61,0,0,1,1403.71,1014.74Z" transform="translate(-1397.31 -985.12)"/><path class="cls-1" d="M1409.76,1020.79a.61.61,0,0,1-.32-.08.65.65,0,0,1-.24-.88l1.27-2.19a.64.64,0,0,1,.88-.23.65.65,0,0,1,.23.88l-1.26,2.18A.64.64,0,0,1,1409.76,1020.79Z" transform="translate(-1397.31 -985.12)"/><path class="cls-1" d="M1418,1023a.65.65,0,0,1-.65-.64v-2.53a.65.65,0,0,1,1.29,0v2.53A.64.64,0,0,1,1418,1023Z" transform="translate(-1397.31 -985.12)"/><path class="cls-1" d="M1426.29,1020.79a.64.64,0,0,1-.56-.32l-1.26-2.18a.65.65,0,0,1,1.12-.65l1.26,2.19a.64.64,0,0,1-.24.88A.61.61,0,0,1,1426.29,1020.79Z" transform="translate(-1397.31 -985.12)"/><path class="cls-1" d="M1432.34,1014.74a.61.61,0,0,1-.32-.08l-2.19-1.26a.65.65,0,0,1,.65-1.12l2.18,1.26a.64.64,0,0,1-.32,1.2Z" transform="translate(-1397.31 -985.12)"/><path class="cls-1" d="M1434.56,1006.48H1432a.65.65,0,0,1,0-1.29h2.53a.65.65,0,0,1,0,1.29Z" transform="translate(-1397.31 -985.12)"/><path class="cls-1" d="M1430.15,999.48a.64.64,0,0,1-.32-1.2L1432,997a.64.64,0,1,1,.64,1.12l-2.18,1.26A.68.68,0,0,1,1430.15,999.48Z" transform="translate(-1397.31 -985.12)"/><path class="cls-1" d="M1425,994.35a.72.72,0,0,1-.32-.08.64.64,0,0,1-.24-.88l1.26-2.19a.64.64,0,0,1,1.12.64l-1.26,2.19A.64.64,0,0,1,1425,994.35Z" transform="translate(-1397.31 -985.12)"/><path class="cls-1" d="M1418,1006.48a.62.62,0,0,1-.32-.09.63.63,0,0,1-.33-.55v-9.43a.65.65,0,1,1,1.29,0v8.3l4.95-2.91a.65.65,0,0,1,.88.23.64.64,0,0,1-.23.88l-5.92,3.48A.62.62,0,0,1,1418,1006.48Z" transform="translate(-1397.31 -985.12)"/></svg>