<svg id="Ñëîé_1" data-name="Ñëîé 1" xmlns="http://www.w3.org/2000/svg" viewBox="0 0 31.39 39.27"><defs><style>.cls-1{fill:#fff;}</style></defs><title>location</title><path class="cls-1" d="M1331.75,933.82a.62.62,0,0,1-.49-.23l-11.6-13.81a15.35,15.35,0,0,1,11.75-25.23h.69a15.35,15.35,0,0,1,11.75,25.23l-11.6,13.81A.64.64,0,0,1,1331.75,933.82Zm-.34-38A14.07,14.07,0,0,0,1320.64,919l11.11,13.23L1342.86,919h0a14.06,14.06,0,0,0-10.76-23.11Z" transform="translate(-1316.06 -894.55)"/><path class="cls-1" d="M1331.75,919.13a9.23,9.23,0,1,1,9.23-9.23A9.24,9.24,0,0,1,1331.75,919.13Zm0-17.17a7.94,7.94,0,1,0,7.94,7.94A8,8,0,0,0,1331.75,902Z" transform="translate(-1316.06 -894.55)"/></svg>