<svg id="Ñëîé_1" data-name="Ñëîé 1" xmlns="http://www.w3.org/2000/svg" viewBox="0 0 49.98 22.82"><defs><style>.cls-1{fill:#fff;}</style></defs><title>parking</title><path class="cls-1" d="M1097.85,1496.93h-2.12a.65.65,0,1,1,0-1.29h2.12a2.68,2.68,0,0,0,2.67-2.67v-2.92a2.68,2.68,0,0,0-2.67-2.67h-7.39a.63.63,0,0,1-.52-.27l-4.52-6.32a3.06,3.06,0,0,0-2.48-1.28h-10.2a3,3,0,0,0-2.47,1.28l-4.52,6.32a.63.63,0,0,1-.52.27h-9.63a1.89,1.89,0,0,0-1.86,1.62l-.61,4.51a1.88,1.88,0,0,0,1.86,2.13h3.8a.65.65,0,0,1,0,1.29H1055a3.19,3.19,0,0,1-2.38-1.08,3.14,3.14,0,0,1-.75-2.51l.61-4.51a3.17,3.17,0,0,1,3.13-2.74h9.3l4.32-6a4.33,4.33,0,0,1,3.52-1.82h10.2a4.34,4.34,0,0,1,3.53,1.82l4.32,6h7.06a4,4,0,0,1,4,4V1493A4,4,0,0,1,1097.85,1496.93Z" transform="translate(-1051.83 -1478.22)"/><path class="cls-1" d="M1087.05,1496.93h-19.49a.65.65,0,0,1,0-1.29h19.49a.65.65,0,1,1,0,1.29Z" transform="translate(-1051.83 -1478.22)"/><path class="cls-1" d="M1063.24,1501a4.76,4.76,0,1,1,4.75-4.76A4.76,4.76,0,0,1,1063.24,1501Zm0-8.23a3.47,3.47,0,1,0,3.47,3.47A3.48,3.48,0,0,0,1063.24,1492.81Z" transform="translate(-1051.83 -1478.22)"/><path class="cls-1" d="M1091.33,1501a4.76,4.76,0,1,1,4.76-4.76A4.76,4.76,0,0,1,1091.33,1501Zm0-8.23a3.47,3.47,0,1,0,3.47,3.47A3.47,3.47,0,0,0,1091.33,1492.81Z" transform="translate(-1051.83 -1478.22)"/><path class="cls-1" d="M1090.46,1487.38h-25.23a.65.65,0,1,1,0-1.29h25.23a.65.65,0,0,1,0,1.29Z" transform="translate(-1051.83 -1478.22)"/><path class="cls-1" d="M1080.63,1487.38a.63.63,0,0,1-.62-.48l-2.11-7.87a.64.64,0,1,1,1.24-.33l2.11,7.87a.64.64,0,0,1-.46.78A.45.45,0,0,1,1080.63,1487.38Z" transform="translate(-1051.83 -1478.22)"/><path class="cls-1" d="M1057.4,1490.93h-4a.64.64,0,1,1,0-1.28h4a.64.64,0,1,1,0,1.28Z" transform="translate(-1051.83 -1478.22)"/><path class="cls-1" d="M1100.67,1490.93h-4a.64.64,0,0,1,0-1.28h4a.64.64,0,0,1,.64.64A.64.64,0,0,1,1100.67,1490.93Z" transform="translate(-1051.83 -1478.22)"/></svg>