<svg id="Ñëîé_1" data-name="Ñëîé 1" xmlns="http://www.w3.org/2000/svg" viewBox="0 0 37.05 37.02"><defs><style>.cls-1{fill:#fff;}</style></defs><title>phone</title><path class="cls-1" d="M1426,932.7a17.58,17.58,0,0,1-2.42-.25,18.69,18.69,0,0,1-4.09-1.26,33.55,33.55,0,0,1-5.39-3,40.37,40.37,0,0,1-6.39-5.38,44,44,0,0,1-4.45-5.07,36.69,36.69,0,0,1-2.85-4.5,25,25,0,0,1-1.64-3.77,20.33,20.33,0,0,1-.74-2.94,10.83,10.83,0,0,1-.16-2c0-.42,0-.66,0-.72a.28.28,0,0,1,0-.09,4.33,4.33,0,0,1,.4-1.27,3.4,3.4,0,0,1,.79-1.08l5-5a2.33,2.33,0,0,1,1.67-.71,2,2,0,0,1,1.25.41,3.18,3.18,0,0,1,.8.87l0,0,4,7.69a2.46,2.46,0,0,1,.25,1.76,3,3,0,0,1-.82,1.53l-1.82,1.82v0s0,0,0,0a6.24,6.24,0,0,0,.61,1.55,15,15,0,0,0,1.35,2.13,24.47,24.47,0,0,0,2.61,2.93,25.15,25.15,0,0,0,3,2.65,16.08,16.08,0,0,0,2.13,1.36,4.65,4.65,0,0,0,1.19.49l.36.08,0,0h0l2.12-2.16,0,0a3,3,0,0,1,2-.76,2.63,2.63,0,0,1,1.25.26l.14,0,7.3,4.32a2.54,2.54,0,0,1,1.26,1.68v0a2.38,2.38,0,0,1-.71,2l-5,5a3.38,3.38,0,0,1-1.06.77,4.45,4.45,0,0,1-1.27.4h-.09l-.16,0Zm-26.8-28.79c0,.11,0,.36,0,.74a8.94,8.94,0,0,0,.15,1.73,18,18,0,0,0,.69,2.75,22.72,22.72,0,0,0,1.55,3.57,35.57,35.57,0,0,0,2.75,4.33,41.27,41.27,0,0,0,4.32,4.91,38.92,38.92,0,0,0,6.19,5.22A31.74,31.74,0,0,0,1420,930a17.05,17.05,0,0,0,3.79,1.17,16.62,16.62,0,0,0,2.23.24h.44l.21,0a3.51,3.51,0,0,0,.87-.28,2.2,2.2,0,0,0,.69-.5l5.06-5a1.09,1.09,0,0,0,.35-1,1.28,1.28,0,0,0-.65-.81l-7.21-4.25-.13-.06a1.36,1.36,0,0,0-.69-.13,1.74,1.74,0,0,0-1.15.42l-2.14,2.18a1.16,1.16,0,0,1-.5.29,1,1,0,0,1-.58.08l-.47-.09a6.7,6.7,0,0,1-1.53-.61,17.68,17.68,0,0,1-2.3-1.47,26.14,26.14,0,0,1-3.11-2.78,25.58,25.58,0,0,1-2.75-3.08A17,17,0,0,1,1409,912a7.35,7.35,0,0,1-.74-2,.49.49,0,0,1,0-.12,1.55,1.55,0,0,1,.09-.49,1.22,1.22,0,0,1,.29-.5l1.85-1.85a1.75,1.75,0,0,0,.47-.89,1.2,1.2,0,0,0-.12-.88l-4-7.67a2.08,2.08,0,0,0-.47-.51.73.73,0,0,0-.48-.16,1,1,0,0,0-.76.35l-5,5a2.19,2.19,0,0,0-.51.71A2.87,2.87,0,0,0,1399.23,903.91Z" transform="translate(-1397.9 -895.68)"/></svg>