<svg id="Ñëîé_1" data-name="Ñëîé 1" xmlns="http://www.w3.org/2000/svg" viewBox="0 0 32.9 36.46"><defs><style>.cls-1{fill:#fff;}</style></defs><title>post</title><path class="cls-1" d="M1489.62,1189.42a.66.66,0,0,1-.35-.11l-4.34-2.85a.65.65,0,0,1-.29-.49.67.67,0,0,1,.21-.53l4.34-3.94a.63.63,0,0,1,.69-.12.65.65,0,0,1,.39.59v6.8a.64.64,0,0,1-.34.57A.68.68,0,0,1,1489.62,1189.42Zm-3.29-3.58,2.65,1.74v-4.15Z" transform="translate(-1484.64 -1170.9)"/><path class="cls-1" d="M1516.89,1207.36h-31.61a.64.64,0,0,1-.64-.64v-20.8a.64.64,0,0,1,.34-.57.65.65,0,0,1,.66,0l3.84,2.53a.64.64,0,0,1,.18.89.63.63,0,0,1-.89.18l-2.84-1.87v19h30.32v-19l-3,1.94a.64.64,0,0,1-.71-1.07l4-2.6a.65.65,0,0,1,.66,0,.64.64,0,0,1,.34.57v20.8A.65.65,0,0,1,1516.89,1207.36Z" transform="translate(-1484.64 -1170.9)"/><path class="cls-1" d="M1512.55,1189.42a.65.65,0,0,1-.64-.65V1182a.66.66,0,0,1,.38-.59.65.65,0,0,1,.7.12l4.33,3.94a.65.65,0,0,1-.07,1l-4.34,2.85A.66.66,0,0,1,1512.55,1189.42Zm.65-6v4.15l2.64-1.74Z" transform="translate(-1484.64 -1170.9)"/><path class="cls-1" d="M1504.29,1175.1h-6.4a.65.65,0,0,1-.44-1.12l3.2-2.91a.63.63,0,0,1,.87,0l3.2,2.91a.65.65,0,0,1,.17.71A.66.66,0,0,1,1504.29,1175.1Zm-4.74-1.29h3.07l-1.53-1.4Z" transform="translate(-1484.64 -1170.9)"/><path class="cls-1" d="M1489.62,1189.23a.64.64,0,0,1-.64-.64v-14.14a.64.64,0,0,1,.64-.64h22.93a.65.65,0,0,1,.65.64v14.08a.65.65,0,0,1-1.29,0V1175.1h-21.64v13.49A.65.65,0,0,1,1489.62,1189.23Z" transform="translate(-1484.64 -1170.9)"/><path class="cls-1" d="M1516.89,1207.36h-31.61a.63.63,0,0,1-.61-.46.64.64,0,0,1,.26-.72l15-9.86-15-9.86a.65.65,0,0,1,.71-1.08l15.45,10.17,15.45-10.17a.65.65,0,0,1,.89.18.66.66,0,0,1-.18.9l-15,9.86,15,9.86a.66.66,0,0,1,.26.72A.63.63,0,0,1,1516.89,1207.36Zm-29.46-1.28h27.31l-13.65-9Z" transform="translate(-1484.64 -1170.9)"/><path class="cls-1" d="M1502.71,1179.86H1494a.65.65,0,0,1,0-1.29h8.7a.65.65,0,1,1,0,1.29Z" transform="translate(-1484.64 -1170.9)"/><path class="cls-1" d="M1508.17,1184.64H1494a.65.65,0,0,1,0-1.29h14.16a.65.65,0,0,1,0,1.29Z" transform="translate(-1484.64 -1170.9)"/><path class="cls-1" d="M1508.17,1189.42h-10.72a.65.65,0,1,1,0-1.29h10.72a.65.65,0,0,1,0,1.29Z" transform="translate(-1484.64 -1170.9)"/></svg>