<svg id="Ñëîé_1" data-name="Ñëîé 1" xmlns="http://www.w3.org/2000/svg" viewBox="0 0 44.52 39.64"><defs><style>.cls-1{fill:#fff;stroke:#000;stroke-miterlimit:10;stroke-width:0.5px;}</style></defs><title>refer</title><path class="cls-1" d="M1768.58,1410.94h0l-7.38-.09h-.05l-8.6-.1a4.22,4.22,0,0,1-2.64-1,2.06,2.06,0,0,0-.84-.4,1.9,1.9,0,0,1-1.44-1.83v-17.22a1.91,1.91,0,0,1,.25-.93l4.21-7.37a16.76,16.76,0,0,0,2-5.4l.4-2.15a3,3,0,0,1,2-2.52,3.2,3.2,0,0,1,.83-.1c1.64,0,2.94,2,3.89,5.78a9.14,9.14,0,0,1,.14,3.79l-1.1,6.3,11.76.15a3.55,3.55,0,0,1,3.54,3.39,3.42,3.42,0,0,1-1,2.5,3.25,3.25,0,0,1-1,.7,7.23,7.23,0,0,0-.3,7.71,3.45,3.45,0,0,0-1.15,5.4A3.47,3.47,0,0,1,1768.58,1410.94Zm-11.36-37.85a2.24,2.24,0,0,0-.46.05c-.94.26-1.07,1.39-1.08,1.44v.05l-.4,2.17a18.18,18.18,0,0,1-2.11,5.81L1749,1390a.6.6,0,0,0-.08.29v17.22a.61.61,0,0,0,.47.58,3.44,3.44,0,0,1,1.34.66,3,3,0,0,0,1.84.72l8.61.11h0l7.37.09a2.17,2.17,0,0,0,.89-4.17.64.64,0,0,1,.26-1.23h0a2.17,2.17,0,0,0,.86-4.17.64.64,0,0,1,.25-1.23h0a2.17,2.17,0,0,0,.86-4.17.65.65,0,0,1-.38-.72.63.63,0,0,1,.64-.51,2.14,2.14,0,0,0,1.57-.64,2.2,2.2,0,0,0,.63-1.58,2.25,2.25,0,0,0-2.26-2.13l-12.47-.15a.63.63,0,0,1-.48-.23l0-.06a.64.64,0,0,1-.14-.52l1.22-7a7.79,7.79,0,0,0-.12-3.26c-.73-3-1.75-4.79-2.65-4.8Z" transform="translate(-1731.22 -1371.55)"/><path class="cls-1" d="M1733.37,1410.44a1.88,1.88,0,0,1-1.31-.53,1.83,1.83,0,0,1-.55-1.3l0-19.17a1.8,1.8,0,0,1,.55-1.31,1.86,1.86,0,0,1,1.31-.53l10.53,0h0a1.86,1.86,0,0,1,1.3.53,1.76,1.76,0,0,1,.55,1.3l0,19.17a1.78,1.78,0,0,1-.54,1.3,1.88,1.88,0,0,1-1.31.53l-10.54,0Zm10.5-21.57h0l-10.53,0a.6.6,0,0,0-.41.16.57.57,0,0,0-.16.38l0,19.17a.56.56,0,0,0,.57.55l10.54,0a.54.54,0,0,0,.4-.17.52.52,0,0,0,.17-.38l0-19.17a.52.52,0,0,0-.17-.38A.55.55,0,0,0,1743.87,1388.87Z" transform="translate(-1731.22 -1371.55)"/><path class="cls-1" d="M1772,1394.74h-5.54a.65.65,0,0,1,0-1.29H1772a.65.65,0,1,1,0,1.29Z" transform="translate(-1731.22 -1371.55)"/><path class="cls-1" d="M1770.85,1400.13h-5.54a.65.65,0,1,1,0-1.29h5.54a.65.65,0,0,1,0,1.29Z" transform="translate(-1731.22 -1371.55)"/><path class="cls-1" d="M1769.69,1405.54h-5.54a.65.65,0,0,1,0-1.29h5.54a.65.65,0,1,1,0,1.29Z" transform="translate(-1731.22 -1371.55)"/></svg>